:SAMPLES-PER-SECOND 30
:FULLY-SPECIFIED
:DEGREES
196
root  10.3686 38.4622 0.143562 67.5176 85.062 78.9168
RightUpLeg  -16.0253 -0.680068 -8.00049
RightLeg  60.7314 2.13808 3.64753
RightFoot  1.44774 -0.806411 6.78718
RightToes  5.82063e-011 0 -3.6325e-017
Spine  11.2074 0.190176 -2.35726
Spine1  13.348 0.492164 -5.18757
HEad  -8.58937 0.943369 -0.341967
LeftShoulder1  -0.0969531 3.78389 -28.4551
LeftArm  -8.5695 2.73306 -35.2907
LeftForeArm  72.2396 -79.4208 -76.369
LeftHand  0.0112804 2.42863 -0.794645
RightShoulder  -0.127274 -3.86228 26.7862
RightArm  -10.007 -16.8709 40.1768
RightForeArm  100.588 76.616 124.123
RightHand  -0.0619055 -4.21915 -4.5124
LeftUpLeg  1.50164 3.41348 -7.42717
LeftLeg  23.384 0.470499 0.658032
LeftFoot  -11.3478 0.0687466 6.83016
LeftToes  1.81573e-012 2.54609e-010 -3.45981e-011
197
root  11.9112 38.6708 0.113221 69.4889 86.4722 81.7198
RightUpLeg  -16.1172 -1.57231 -6.48128
RightLeg  49.0982 1.93139 2.03711
RightFoot  0.205203 -0.600412 6.01989
RightToes  5.82063e-011 0 -3.6325e-017
Spine  12.015 -0.297703 -1.08338
Spine1  13.3389 -0.0419935 -4.21798
HEad  -8.56402 0.969917 -0.51637
LeftShoulder1  -0.118436 3.84475 -28.5875
LeftArm  -8.19803 2.09072 -35.6887
LeftForeArm  72.3664 -79.4252 -76.6633
LeftHand  0.0116379 2.39814 -0.60585
RightShoulder  -0.148292 -3.92508 26.8498
RightArm  -10.9921 -17.8747 39.5555
RightForeArm  103.869 76.1757 126.942
RightHand  -0.0938195 -2.5492 -3.26438
LeftUpLeg  6.45355 5.30461 -5.19067
LeftLeg  20.7362 -1.94662 -0.25313
LeftFoot  -12.7618 0.166907 7.21895
LeftToes  1.81573e-012 2.54609e-010 -3.45981e-011
198
root  13.4383 38.7283 0.0757086 84.5332 87.3658 96.5968
RightUpLeg  -15.4341 -2.8583 -5.84468
RightLeg  34.0636 2.00307 1.28119
RightFoot  -1.05385 -0.647898 7.09497
RightToes  5.82063e-011 0 -3.6325e-017
Spine  11.9086 -0.993694 -0.198794
Spine1  13.0624 -0.678057 -3.75244
HEad  -8.90095 0.74645 -0.6192
LeftShoulder1  -0.11613 3.83901 -28.4835
LeftArm  -7.90282 1.95513 -35.9903
LeftForeArm  73.9086 -79.4886 -78.1456
LeftHand  0.00547793 2.91608 -0.621131
RightShoulder  -0.161396 -3.96123 27.0993
RightArm  -11.444 -18.3534 39.0869
RightForeArm  106.239 75.6872 129.503
RightHand  -0.081273 -2.84249 -3.0769
LeftUpLeg  9.81279 6.1666 -3.74511
LeftLeg  18.9835 -3.95225 -0.759093
LeftFoot  -14.09 0.269883 7.71598
LeftToes  1.81573e-012 2.54609e-010 -3.45981e-011
199
root  14.9993 38.6503 0.130229 90.0041 87.1623 101.478
RightUpLeg  -14.2706 -3.0231 -5.83254
RightLeg  17.4954 2.72253 0.428652
RightFoot  -1.08879 -0.662736 7.29284
RightToes  5.82063e-011 0 -3.6325e-017
Spine  11.0985 -1.03517 -0.578893
Spine1  13.0134 -0.824145 -2.8067
HEad  -8.8925 0.838151 -0.81003
LeftShoulder1  -0.0762693 3.72659 -28.036
LeftArm  -7.76629 1.96863 -36.4974
LeftForeArm  74.0125 -79.493 -78.1803
LeftHand  0.00305687 2.52988 -0.727929
RightShoulder  -0.195713 -4.06001 27.308
RightArm  -12.0216 -18.8251 38.7945
RightForeArm  108.088 75.0684 132.196
RightHand  -0.0925087 -2.93511 -3.73007
LeftUpLeg  12.9118 7.28866 -2.94324
LeftLeg  17.0389 -5.5551 -1.33205
LeftFoot  -15.6685 0.381846 7.61015
LeftToes  1.81573e-012 2.54609e-010 -3.45981e-011
200
root  16.5576 38.4486 0.379421 85.0086 86.3198 95.5314
RightUpLeg  -13.8906 -3.50792 -5.36568
RightLeg  3.30228 5.999 -1.54783
RightFoot  -2.13862 -0.591147 7.14969
RightToes  5.82063e-011 0 -3.6325e-017
Spine  9.97394 -0.202073 -3.04491
Spine1  12.9653 -0.700627 -0.0109431
HEad  -8.79999 0.721809 -1.25666
LeftShoulder1  -0.0434763 3.63139 -27.8145
LeftArm  -7.50277 1.79655 -36.8458
LeftForeArm  72.8314 -79.4451 -77.1372
LeftHand  -0.00587804 2.48775 -0.316322
RightShoulder  -0.258551 -4.24038 27.6599
RightArm  -12.2109 -19.0077 38.2802
RightForeArm  110.615 74.5324 134.493
RightHand  -0.0837099 -3.22633 -3.67818
LeftUpLeg  15.548 8.29765 -2.43765
LeftLeg  15.3237 -6.71022 -2.16857
LeftFoot  -17.3514 0.484291 7.22783
LeftToes  1.81573e-012 2.54609e-010 -3.45981e-011
201
root  18.1542 38.083 0.708461 79.0227 85.6475 88.6969
RightUpLeg  -14.8823 -4.23772 -4.42804
RightLeg  -3.63402 7.78814 -3.48276
RightFoot  -3.97789 -0.504512 7.41963
RightToes  5.82063e-011 0 -3.6325e-017
Spine  8.82658 0.759005 -5.72946
Spine1  12.8561 -0.640476 3.21894
HEad  -8.20362 0.571104 -1.87996
LeftShoulder1  -0.0966265 3.78377 -28.3936
LeftArm  -7.19499 1.41629 -36.317
LeftForeArm  70.9031 -79.3582 -75.4068
LeftHand  -0.000508019 2.65338 -0.606762
RightShoulder  -0.20298 -4.08365 27.1975
RightArm  -12.4855 -19.2581 38.643
RightForeArm  111.603 74.3515 135.235
RightHand  -0.0883456 -3.01218 -3.6209
LeftUpLeg  17.6448 9.33563 -1.60454
LeftLeg  15.2543 -7.76128 -2.94352
LeftFoot  -19.6798 0.632127 7.00741
LeftToes  1.81573e-012 2.54609e-010 -3.45981e-011
202
root  19.9464 37.6344 0.746876 91.772 86.3998 102.512
RightUpLeg  -14.0634 -4.5667 -4.04831
RightLeg  -1.88208 3.00821 -2.20369
RightFoot  -5.02088 -0.440283 7.26928
RightToes  5.82063e-011 0 -3.6325e-017
Spine  8.78888 0.31353 -3.53835
Spine1  13.6987 -0.945867 2.90598
HEad  -7.81629 -0.17453 -2.17594
LeftShoulder1  -0.0854758 3.74984 -28.5939
LeftArm  -6.97992 1.13411 -36.4088
LeftForeArm  69.176 -79.2704 -73.5401
LeftHand  0.0062579 2.5063 -0.823133
RightShoulder  -0.157708 -3.95542 26.7185
RightArm  -12.6439 -19.3714 38.592
RightForeArm  112.218 74.0639 136.225
RightHand  -0.0888934 -3.19675 -3.9063
LeftUpLeg  21.3852 9.35186 0.253839
LeftLeg  16.6151 -9.04376 -2.98006
LeftFoot  -22.5407 0.760779 6.42465
LeftToes  1.81573e-012 2.54609e-010 -3.45981e-011
203
root  21.7014 37.2689 0.594104 129.677 87.1676 141.925
RightUpLeg  -13.1623 -5.72019 -3.59238
RightLeg  4.38815 -1.2633 -0.582852
RightFoot  -0.0911211 -0.233978 2.91493
RightToes  5.82063e-011 0 -3.6325e-017
Spine  9.51482 -1.23982 1.55726
Spine1  14.7313 -1.50359 0.188389
HEad  -8.04033 -0.302919 -2.14555
LeftShoulder1  -0.101381 3.79656 -28.4763
LeftArm  -7.03716 1.14434 -36.4206
LeftForeArm  69.5112 -79.2902 -74.1626
LeftHand  0.0124099 2.39472 -1.02773
RightShoulder  -0.220078 -4.13905 27.0198
RightArm  -12.0967 -18.0646 37.7921
RightForeArm  110.808 74.3985 134.946
RightHand  -0.0793928 -3.36495 -3.64265
LeftUpLeg  24.82 5.60647 0.473483
LeftLeg  18.3574 -7.18523 -1.93573
LeftFoot  -24.4494 0.589513 3.81922
LeftToes  1.81573e-012 2.54609e-010 -3.45981e-011
204
root  23.3768 37.0174 0.617464 171.772 88.1019 -175.748
RightUpLeg  -14.8301 -6.49908 -1.75002
RightLeg  10.6443 0.889969 0.627299
RightFoot  9.4858 0.120291 -0.46691
RightToes  5.82063e-011 0 -3.6325e-017
Spine  9.14245 -1.81506 6.46259
Spine1  15.7245 -1.07761 -1.31131
HEad  -8.16481 0.229381 -2.846
LeftShoulder1  -0.0776395 3.72724 -28.5813
LeftArm  -6.87718 1.37311 -36.2582
LeftForeArm  67.9517 -79.206 -72.9475
LeftHand  -0.00533777 2.31622 -0.273212
RightShoulder  -0.232957 -4.18037 26.8903
RightArm  -11.6121 -16.9713 37.7962
RightForeArm  107.773 75.1047 132.007
RightHand  -0.0859567 -3.03632 -3.50355
LeftUpLeg  26.0094 3.34051 1.87387
LeftLeg  22.0517 -5.9783 -2.40321
LeftFoot  -24.5325 0.172715 0.336708
LeftToes  1.81573e-012 2.54609e-010 -3.45981e-011
205
root  24.9094 36.5993 0.921596 -130.221 87.8947 -117.204
RightUpLeg  -17.0661 -5.46404 0.980611
RightLeg  19.8996 1.44336 0.327452
RightFoot  9.00305 0.174438 -0.669767
RightToes  5.82063e-011 0 -3.6325e-017
Spine  11.4354 -1.71611 8.70468
Spine1  14.1244 -0.571986 -0.530133
HEad  -7.57031 0.311056 -3.02185
LeftShoulder1  -0.0809503 3.7357 -28.8092
LeftArm  -6.85657 1.4522 -36.9354
LeftForeArm  62.5571 -78.8257 -67.0949
LeftHand  -0.0101997 2.60613 -0.172611
RightShoulder  -0.198423 -4.07907 26.7015
RightArm  -11.3239 -15.6003 37.876
RightForeArm  104.326 76.1073 127.332
RightHand  -0.0712665 -3.37234 -3.15677
LeftUpLeg  24.1114 3.28781 5.41095
LeftLeg  32.295 -7.21668 -4.5801
LeftFoot  -23.0567 -0.362469 -5.33227
LeftToes  1.81573e-012 2.54609e-010 -3.45981e-011
